<?xml version="1.0" encoding="UTF-8" standalone="no"?>
<svg
   xmlns:dc="http://purl.org/dc/elements/1.1/"
   xmlns:cc="http://creativecommons.org/ns#"
   xmlns:rdf="http://www.w3.org/1999/02/22-rdf-syntax-ns#"
   xmlns:svg="http://www.w3.org/2000/svg"
   xmlns="http://www.w3.org/2000/svg"
   id="svg44"
   version="1.1"
   height="150"
   width="550">
  <metadata
     id="metadata50">
    <rdf:RDF>
      <cc:Work
         rdf:about="">
        <dc:format>image/svg+xml</dc:format>
        <dc:type
           rdf:resource="http://purl.org/dc/dcmitype/StillImage" />
      </cc:Work>
    </rdf:RDF>
  </metadata>
  <defs
     id="defs48" />
  <g
     id="g5">
    <title
       id="title2">background</title>
    <path
       id="canvas_background"
       d="M -1,-1 H 551 V 151 H -1 Z"
       style="fill:none" />
  </g>
  <g
     id="g42">
    <title
       id="title7">Layer 1</title>
    <g
       id="svg_1">
      <g
         id="svg_2"
         transform="translate(0,-24)">
        <path
           style="fill:#000000;stroke:#000000;stroke-width:0;stroke-miterlimit:2"
           id="path460577"
           d="m 14.441541,167.46743 c 2.2301,0 4.4822,-0.79488 5.8954,-1.8989 l 0.81696,-7.0214 h -6 l -0.37536,2.9587 h 2.6054 l -0.28704,1.943 c -0.86112,0.552 -1.6118,0.75072 -2.4288,0.75072 -1.8326,0 -2.9587,-1.1923 -2.9587,-3.4886 0,-3.0912 1.7443,-6.0058 4.3498,-6.0058 1.2806,0 2.2522,0.70656 2.8262,1.5898 l 2.7379,-2.0755 c -1.1261,-1.8768 -3.1795,-2.8262 -5.3654,-2.8262 -4.9459,0 -8.2579003,4.2614 -8.2579003,9.5165 0,4.4381 2.8262003,6.5578 6.4253003,6.5578 z"
           stroke-miterlimit="2"
           transform="translate(146,-7)" />
        <path
           style="fill:#000000;stroke:#000000;stroke-width:0;stroke-miterlimit:2"
           id="path460579"
           d="m 24.501541,156.46743 -1.3248,10.797 h 3.312 l 0.48576,-4.151 c 0.39744,-2.5613 1.7222,-3.7536 3.312,-3.1795 l 0.46368,-3.6653 c -1.1923,0 -2.2522,0.57408 -3.0912,1.6781 h -0.0442 l 0.19872,-1.4794 z"
           stroke-miterlimit="2"
           transform="translate(146,-7)" />
        <path
           style="fill:#000000;stroke:#000000;stroke-width:0;stroke-miterlimit:2"
           id="path460581"
           d="m 35.031541,167.46743 c 1.2144,0 2.2963,-0.6624 3.0912,-1.8106 l 0.0662,0.0221 -0.19872,1.5898 h 3.3341 l 1.3248,-10.797 h -3.3341 l -0.0883,0.75072 h -0.0662 c -0.57408,-0.59616 -1.4131,-0.94944 -2.5392,-0.94944 -2.8262,0 -5.1005,2.9366 -5.1005,6.7786 0,2.495 1.1923,4.416 3.5107,4.416 z m 1.0598,-2.9366 c -0.75072,0 -1.2365,-0.68448 -1.2365,-1.7222 0,-1.6118 0.8832,-3.577 2.3405,-3.577 0.68447,0 1.3027,0.26496 1.7885,0.7728 l -0.0441,0.30912 c -0.37537,2.7158 -1.7002,4.2173 -2.8483,4.2173 z"
           stroke-miterlimit="2"
           transform="translate(146,-7)" />
        <path
           style="fill:#000000;stroke:#000000;stroke-width:0;stroke-miterlimit:2"
           id="path460583"
           d="m 47.951541,167.46743 c 1.2365,0 2.2963,-0.6624 3.1133,-1.8106 l 0.0662,0.0221 -0.19872,1.5898 h 3.312 l 2.0093,-16.251 h -3.33 l -0.75072,6.2045 h -0.0662 c -0.64032,-0.61824 -1.5235,-0.94944 -2.5834,-0.94944 -2.8262,0 -5.1005,2.9366 -5.1005,6.7786 0,2.495 1.1923,4.416 3.5328,4.416 z m 1.0378,-2.9366 c -0.75072,0 -1.2365,-0.68448 -1.2365,-1.7222 0,-1.6118 0.8832,-3.577 2.3405,-3.577 0.72864,0 1.3469,0.24288 1.8326,0.7728 l -0.0442,0.30912 c -0.39744,2.7158 -1.7222,4.2173 -2.8925,4.2173 z"
           stroke-miterlimit="2"
           transform="translate(146,-7)" />
        <path
           style="fill:#000000;stroke:#000000;stroke-width:0;stroke-miterlimit:2"
           id="path460585"
           d="m 60.321541,167.46743 c 1.3469,0 2.4067,-0.70656 3.2016,-1.7885 h 0.0442 l -0.13248,1.5898 h 3.2458 l 1.3248,-10.797 h -3.312 l -0.59616,4.9459 c -0.19872,1.5898 -1.5014,3.0912 -2.4288,3.0912 -0.7728,0 -0.94944,-0.57408 -0.70656,-2.3184 l 0.81696,-5.7187 h -3.2899 l -0.92736,6.7123 c -0.46368,3.2016 0.75072,4.2835 2.76,4.2835 z"
           stroke-miterlimit="2"
           transform="translate(146,-7)" />
        <path
           style="fill:#000000;stroke:#000000;stroke-width:0;stroke-miterlimit:2"
           id="path460587"
           d="m 73.331541,167.46743 c 1.2144,0 2.2963,-0.6624 3.0912,-1.8106 l 0.0662,0.0221 -0.19872,1.5898 h 3.3341 l 1.3248,-10.797 h -3.3341 l -0.0883,0.75072 h -0.0662 c -0.57408,-0.59616 -1.4131,-0.94944 -2.5392,-0.94944 -2.8262,0 -5.1005,2.9366 -5.1005,6.7786 0,2.495 1.1923,4.416 3.5107,4.416 z m 1.0598,-2.9366 c -0.75072,0 -1.2365,-0.68448 -1.2365,-1.7222 0,-1.6118 0.8832,-3.577 2.3405,-3.577 0.68448,0 1.3027,0.26496 1.7885,0.7728 l -0.0442,0.30912 c -0.37536,2.7158 -1.7002,4.2173 -2.8483,4.2173 z"
           stroke-miterlimit="2"
           transform="translate(146,-7)" />
        <path
           style="fill:#000000;stroke:#000000;stroke-width:0;stroke-miterlimit:2"
           id="path460589"
           d="m 85.871541,167.46743 c 0.9936,0 1.9651,-0.24288 2.8925,-0.75072 l -0.52992,-2.5834 c -0.41952,0.2208 -0.79488,0.35328 -1.0819,0.35328 -0.35328,0 -0.57408,-0.28704 -0.48576,-0.90528 l 0.52992,-4.4381 h 2.2301 l 0.3312,-2.6717 h -2.2301 l 0.46368,-3.8198 -3.3782,0.6624 -0.41952,3.1574 h -1.0598 l -0.3312,2.6717 h 1.0598 l -0.57408,4.8797 c -0.30912,2.495 0.90528,3.4445 2.5834,3.4445 z"
           stroke-miterlimit="2"
           transform="translate(146,-7)" />
        <path
           style="fill:#000000;stroke:#000000;stroke-width:0;stroke-miterlimit:2"
           id="path460591"
           d="m 100.02154,159.24743 c 0.0221,-2.0314 -1.942999,-2.9808 -3.687399,-2.9808 -3.6432,0 -5.9174,3.0029 -5.9174,6.6682 -0.0221,2.8042 1.7885,4.5264 4.5043,4.5264 2.1197,0 3.5549,-0.79488 4.703,-2.3626 l -2.473,-1.4573 c -0.59616,0.79488 -1.2365,1.0819 -1.9651,1.0819 -0.64032,0 -1.3469,-0.39744 -1.5456,-1.369 3.1795,-0.3312 6.337,-1.369 6.381099,-4.1069 z m -3.179499,0.46368 c -0.0221,1.0598 -1.4794,1.4794 -3.0912,1.656 0.37536,-1.5014 1.3469,-2.3405 2.2963,-2.3405 0.50784,0 0.81696,0.24288 0.79488,0.68448 z"
           stroke-miterlimit="2"
           transform="translate(146,-7)" />
        <path
           style="fill:#000000;stroke:#000000;stroke-width:0;stroke-miterlimit:2"
           id="path460593"
           d="m 107.69154,151.58743 -1.921,15.677 h 3.4666 l 0.68449,-5.7187 h 5.1005 l 0.35328,-3.1133 h -5.0563 l 0.46369,-3.6874 h 6.1382 l 0.39744,-3.1574 z"
           stroke-miterlimit="2"
           transform="translate(146,-7)" />
        <path
           style="fill:#000000;stroke:#000000;stroke-width:0;stroke-miterlimit:2"
           id="path460595"
           d="m 121.28154,155.07743 c 1.2144,0 2.0534,-0.83904 2.0534,-1.9651 0,-1.0819 -0.79488,-1.8768 -1.9872,-1.8768 -1.2144,0 -2.0534,0.81696 -2.0534,1.943 0,1.0819 0.81696,1.8989 1.9872,1.8989 z m -2.0534,1.391 -1.3248,10.797 h 3.312 l 1.3248,-10.797 z"
           stroke-miterlimit="2"
           transform="translate(146,-7)" />
        <path
           style="fill:#000000;stroke:#000000;stroke-width:0;stroke-miterlimit:2"
           id="path460597"
           d="m 125.76154,156.46743 -1.3469,10.797 h 3.312 l 0.48576,-3.9965 c 0.35328,-2.6938 1.7664,-4.0406 2.76,-4.0406 0.70656,0 0.83904,0.68448 0.64032,2.1859 l -0.7728,5.8512 h 3.2899 l 0.86112,-6.6019 c 0.39744,-3.025 -0.4416,-4.3939 -2.495,-4.3939 -1.4131,0 -2.6054,0.59616 -3.577,1.7222 l -0.0442,-0.0221 0.17664,-1.5014 z"
           stroke-miterlimit="2"
           transform="translate(146,-7)" />
        <path
           style="fill:#000000;stroke:#000000;stroke-width:0;stroke-miterlimit:2"
           id="path460599"
           d="m 140.00154,154.74743 -1.5456,12.519 h 3.5328 l 1.5456,-12.519 h 3.6432 l 0.39743,-3.1574 h -10.841 l -0.39745,3.1574 z"
           stroke-miterlimit="2"
           transform="translate(146,-7)" />
        <path
           style="fill:#000000;stroke:#000000;stroke-width:0;stroke-miterlimit:2"
           id="path460601"
           d="m 155.95154,159.24743 c 0.0221,-2.0314 -1.943,-2.9808 -3.6874,-2.9808 -3.6432,0 -5.9174,3.0029 -5.9174,6.6682 -0.0221,2.8042 1.7885,4.5264 4.5043,4.5264 2.1197,0 3.5549,-0.79488 4.703,-2.3626 l -2.473,-1.4573 c -0.59616,0.79488 -1.2365,1.0819 -1.9651,1.0819 -0.64032,0 -1.3469,-0.39744 -1.5456,-1.369 3.1795,-0.3312 6.337,-1.369 6.3811,-4.1069 z m -3.1795,0.46368 c -0.0221,1.0598 -1.4794,1.4794 -3.0912,1.656 0.37536,-1.5014 1.3469,-2.3405 2.2963,-2.3405 0.50784,0 0.81696,0.24288 0.79488,0.68448 z"
           stroke-miterlimit="2"
           transform="translate(146,-7)" />
        <path
           style="fill:#000000;stroke:#000000;stroke-width:0;stroke-miterlimit:2"
           id="path460603"
           d="m 162.13154,167.46743 c 2.0755,0 3.5549,-0.81696 4.681,-2.3626 l -2.5613,-1.6339 c -0.64032,0.7728 -1.2586,1.0378 -1.8768,1.0378 -0.90528,0 -1.4794,-0.70656 -1.4794,-1.8768 0,-1.8106 1.0157,-3.4224 2.495,-3.4224 0.61824,0 1.1702,0.26496 1.5235,0.94944 l 2.5392,-1.8989 c -0.8832,-1.2806 -2.2301,-1.9872 -4.151,-1.9872 -3.7315,0 -5.7408,3.1795 -5.7408,6.4915 0,3.0691 1.7664,4.703 4.5706,4.703 z"
           stroke-miterlimit="2"
           transform="translate(146,-7)" />
        <path
           style="fill:#000000;stroke:#000000;stroke-width:0;stroke-miterlimit:2"
           id="path460605"
           d="m 170.80154,151.01743 -2.0093,16.251 h 3.312 l 0.46367,-3.8861 c 0.33121,-2.7379 1.7664,-4.151 2.7821,-4.151 0.70655,0 0.83903,0.68448 0.64031,2.1859 l -0.79488,5.8512 h 3.312 l 0.86113,-6.6019 c 0.39743,-3.025 -0.4416,-4.3939 -2.495,-4.3939 -1.4131,0 -2.6275,0.59616 -3.599,1.7222 l -0.0442,-0.0221 0.86111,-6.9552 z"
           stroke-miterlimit="2"
           transform="translate(146,-7)" />
        <path
           style="fill:#000000;stroke:#000000;stroke-width:0;stroke-miterlimit:2"
           id="path460607"
           d="m 187.80154,151.58743 -1.921,15.677 h 3.577 l 1.921,-15.677 z"
           stroke-miterlimit="2"
           transform="translate(146,-7)" />
        <path
           style="fill:#000000;stroke:#000000;stroke-width:0;stroke-miterlimit:2"
           id="path460609"
           d="m 194.33154,156.46743 -1.3469,10.797 h 3.312 l 0.48576,-3.9965 c 0.35328,-2.6938 1.7664,-4.0406 2.76,-4.0406 0.70656,0 0.83904,0.68448 0.64032,2.1859 l -0.7728,5.8512 h 3.2899 l 0.86112,-6.6019 c 0.39744,-3.025 -0.4416,-4.3939 -2.495,-4.3939 -1.4131,0 -2.6054,0.59616 -3.577,1.7222 l -0.0442,-0.0221 0.17664,-1.5014 z"
           stroke-miterlimit="2"
           transform="translate(146,-7)" />
        <path
           style="fill:#000000;stroke:#000000;stroke-width:0;stroke-miterlimit:2"
           id="path460611"
           d="m 209.21154,155.07743 c 1.2144,0 2.0534,-0.83904 2.0534,-1.9651 0,-1.0819 -0.79488,-1.8768 -1.9872,-1.8768 -1.2144,0 -2.0534,0.81696 -2.0534,1.943 0,1.0819 0.81696,1.8989 1.9872,1.8989 z m -2.0534,1.391 -1.3248,10.797 h 3.312 l 1.3248,-10.797 z"
           stroke-miterlimit="2"
           transform="translate(146,-7)" />
        <path
           style="fill:#000000;stroke:#000000;stroke-width:0;stroke-miterlimit:2"
           id="path460613"
           d="m 215.50154,167.46743 c 0.9936,0 1.9651,-0.24288 2.8925,-0.75072 l -0.52992,-2.5834 c -0.41952,0.2208 -0.79488,0.35328 -1.0819,0.35328 -0.35328,0 -0.57408,-0.28704 -0.48576,-0.90528 l 0.52992,-4.4381 h 2.2301 l 0.3312,-2.6717 h -2.2301 l 0.46368,-3.8198 -3.3782,0.6624 -0.41952,3.1574 h -1.0598 l -0.3312,2.6717 h 1.0598 l -0.57408,4.8797 c -0.30912,2.495 0.90528,3.4445 2.5834,3.4445 z"
           stroke-miterlimit="2"
           transform="translate(146,-7)" />
        <path
           style="fill:#000000;stroke:#000000;stroke-width:0;stroke-miterlimit:2"
           id="path460615"
           d="m 223.83154,155.07743 c 1.2144,0 2.0534,-0.83904 2.0534,-1.9651 0,-1.0819 -0.79488,-1.8768 -1.9872,-1.8768 -1.2144,0 -2.0534,0.81696 -2.0534,1.943 0,1.0819 0.81696,1.8989 1.9872,1.8989 z m -2.0534,1.391 -1.3248,10.797 h 3.312 l 1.3248,-10.797 z"
           stroke-miterlimit="2"
           transform="translate(146,-7)" />
        <path
           style="fill:#000000;stroke:#000000;stroke-width:0;stroke-miterlimit:2"
           id="path460617"
           d="m 230.52154,167.46743 c 1.2144,0 2.2963,-0.6624 3.0912,-1.8106 l 0.0662,0.0221 -0.19872,1.5898 h 3.3341 l 1.3248,-10.797 h -3.3341 l -0.0883,0.75072 h -0.0662 c -0.57408,-0.59616 -1.4131,-0.94944 -2.5392,-0.94944 -2.8262,0 -5.1005,2.9366 -5.1005,6.7786 0,2.495 1.1923,4.416 3.5107,4.416 z m 1.0598,-2.9366 c -0.75072,0 -1.2365,-0.68448 -1.2365,-1.7222 0,-1.6118 0.8832,-3.577 2.3405,-3.577 0.68448,0 1.3027,0.26496 1.7885,0.7728 l -0.0442,0.30912 c -0.37536,2.7158 -1.7002,4.2173 -2.8483,4.2173 z"
           stroke-miterlimit="2"
           transform="translate(146,-7)" />
        <path
           style="fill:#000000;stroke:#000000;stroke-width:0;stroke-miterlimit:2"
           id="path460619"
           d="m 243.06154,167.46743 c 0.9936,0 1.9651,-0.24288 2.8925,-0.75072 l -0.52993,-2.5834 c -0.41951,0.2208 -0.79487,0.35328 -1.0819,0.35328 -0.35328,0 -0.57408,-0.28704 -0.48576,-0.90528 l 0.52993,-4.4381 h 2.2301 l 0.33121,-2.6717 h -2.2301 l 0.46369,-3.8198 -3.3782,0.6624 -0.41951,3.1574 h -1.0598 l -0.3312,2.6717 h 1.0598 l -0.57408,4.8797 c -0.30912,2.495 0.90529,3.4445 2.5834,3.4445 z"
           stroke-miterlimit="2"
           transform="translate(146,-7)" />
        <path
           style="fill:#000000;stroke:#000000;stroke-width:0;stroke-miterlimit:2"
           id="path460621"
           d="m 251.39154,155.07743 c 1.2144,0 2.0534,-0.83904 2.0534,-1.9651 0,-1.0819 -0.79488,-1.8768 -1.9872,-1.8768 -1.2144,0 -2.0534,0.81696 -2.0534,1.943 0,1.0819 0.81696,1.8989 1.9872,1.8989 z m -2.0534,1.391 -1.3248,10.797 h 3.312 l 1.3248,-10.797 z"
           stroke-miterlimit="2"
           transform="translate(146,-7)" />
        <path
           style="fill:#000000;stroke:#000000;stroke-width:0;stroke-miterlimit:2"
           id="path460623"
           d="m 258.19154,167.46743 c 2.9146,0 5.7187,-1.656 6.4253,-6.5578 0.2208,-1.5014 0.2208,-3.047 -0.0221,-4.4381 h -3.312 c 0.19872,1.4131 0.22081,2.495 0.0221,3.7757 -0.46368,3.3341 -1.7885,4.2614 -2.5392,4.2614 -0.72864,0 -0.79488,-0.8832 -0.59616,-2.4509 l 0.68448,-5.5862 h -3.2678 l -0.79487,6.2707 c -0.33121,2.8042 0.59615,4.7251 3.4003,4.7251 z"
           stroke-miterlimit="2"
           transform="translate(146,-7)" />
        <path
           style="fill:#000000;stroke:#000000;stroke-width:0;stroke-miterlimit:2"
           id="path460625"
           d="m 276.01154,159.24743 c 0.0221,-2.0314 -1.943,-2.9808 -3.6874,-2.9808 -3.6432,0 -5.9174,3.0029 -5.9174,6.6682 -0.0221,2.8042 1.7885,4.5264 4.5043,4.5264 2.1197,0 3.5549,-0.79488 4.703,-2.3626 l -2.473,-1.4573 c -0.59616,0.79488 -1.2365,1.0819 -1.9651,1.0819 -0.64032,0 -1.3469,-0.39744 -1.5456,-1.369 3.1795,-0.3312 6.337,-1.369 6.3811,-4.1069 z m -3.1795,0.46368 c -0.0221,1.0598 -1.4794,1.4794 -3.0912,1.656 0.37535,-1.5014 1.3469,-2.3405 2.2963,-2.3405 0.50784,0 0.81696,0.24288 0.79489,0.68448 z"
           stroke-miterlimit="2"
           transform="translate(146,-7)" />
        <path
           style="fill:#000000;stroke:#000000;stroke-width:3.33999991;stroke-miterlimit:2"
           id="path460676"
           d="m 16.651541,429.44243 c 5.531,2.1643 11.423,3.1262 17.675,3.1262 6.6132,0 12.264,-0.96192 16.834,-3.006 4.5691,-1.9238 7.9358,-4.6894 10.1,-8.0561 2.1643,-3.3667 3.3667,-7.0942 3.3667,-11.182 0,-4.9298 -1.3226,-8.8978 -3.9679,-11.784 -2.6453,-2.8858 -5.7715,-5.1703 -9.3787,-6.6132 -3.7274,-1.4429 -8.6573,-2.8858 -14.79,-4.4489 -5.531,-1.3226 -9.9799,-2.6453 -13.106,-3.8477 -3.2465,-1.2024 -5.8918,-2.8858 -8.0561,-5.1703 -2.1643,-2.1643 -3.2465,-5.1703 -3.2465,-9.018 0,-4.9298 1.9238,-9.018 6.012,-12.144 3.9679,-3.1262 9.8597,-4.6894 17.675,-4.6894 3.8477,0 7.8156,0.6012 11.904,1.8036 4.0882,1.2024 7.8156,3.006 11.182,5.2906 l 2.2846,-4.9298 c -3.3667,-2.2846 -7.2144,-4.0882 -11.663,-5.531 -4.5691,-1.3226 -9.1382,-2.0441 -13.707,-2.0441 -6.7334,0 -12.264,1.0822 -16.713,3.006 -4.4489,2.0441 -7.6954,4.8096 -9.8597003,8.1763 -2.1643,3.3667 -3.2465,7.0942 -3.2465,11.182 0,5.0501 1.2024,9.1382 3.8477,12.144 2.6453003,3.006 5.7715003,5.1703 9.4990003,6.6132 3.7274,1.4429 8.6573,3.006 14.91,4.4489 5.4108,1.3226 9.7394,2.525 12.986,3.7274 3.1262,1.2024 5.8918,3.006 8.0561,5.1703 2.1643,2.2846 3.2465,5.2906 3.2465,9.018 0,4.9298 -2.0441,8.8978 -6.1322,11.904 -4.0882,3.1262 -10.22,4.5691 -18.156,4.5691 -5.531,0 -10.822,-0.96192 -15.872,-2.8858 -5.0501,-1.9238 -9.0180003,-4.5691 -11.9040003,-7.6954 l -2.7655,4.5691 c 3.1262,3.3667 7.4549003,6.1322 12.9860003,8.2966 z"
           stroke-miterlimit="2"
           transform="translate(7,-309.165)" />
        <path
           style="fill:#000000;stroke:#000000;stroke-width:3.33999991;stroke-miterlimit:2"
           id="path460678"
           d="m 168.69154,38.637432 h -6.1322 v 38.717 h -56.272 v -38.717 h -6.1322 v 84.167998 h 6.1322 V 82.765432 h 56.272 v 40.039998 h 6.1322 z"
           stroke-miterlimit="2" />
        <path
           style="fill:#000000;stroke:#000000;stroke-width:3.33999991;stroke-miterlimit:2"
           id="path460682"
           d="m 345.40154,93.347432 c 6.2525,-1.8036 11.182,-4.9298 14.549,-9.499 3.3667,-4.5691 5.1703,-10.1 5.1703,-16.834 0,-8.7775 -3.006,-15.751 -9.018,-20.802 -6.012,-5.0501 -14.309,-7.5751 -24.89,-7.5751 h -30.18 v 5.531 h 30.18 c 8.8978,0 15.751,2.0441 20.561,6.012 4.6894,3.9679 7.0942,9.6192 7.0942,16.834 0,7.3346 -2.4048,12.986 -7.0942,16.954 -4.8096,3.9679 -11.663,5.8918 -20.561,5.8918 h -30.18 v 32.945998 h 6.1322 V 95.271132 h 24.048 c 2.4048,0 5.1703,-0.12024 8.1763,-0.6012 l 20.08,28.135998 h 6.9739 z"
           stroke-miterlimit="2" />
        <path
           style="fill:#000000;stroke:#000000;stroke-width:3.33999991;stroke-miterlimit:2"
           id="path460684"
           d="m 449.44154,46.217432 c -6.012,-5.0501 -14.309,-7.5751 -24.89,-7.5751 h -30.18 v 5.531 h 30.18 c 8.8978,0 15.751,2.0441 20.561,6.012 4.6894,3.9679 7.0942,9.6192 7.0942,16.834 0,7.3346 -2.4048,12.986 -7.0942,16.834 -4.8096,3.9679 -11.663,5.8918 -20.561,5.8918 h -30.18 v 33.065998 h 6.1322 V 95.276132 h 24.048 c 10.581,0 18.878,-2.4048 24.89,-7.4549 6.012,-5.0501 9.018,-11.904 9.018,-20.802 0,-8.7775 -3.006,-15.751 -9.018,-20.802 z"
           stroke-miterlimit="2" />
        <path
           style="fill:#000000;stroke:#000000;stroke-width:3.33999991;stroke-miterlimit:2"
           id="path460686"
           d="m 540.30154,77.357432 h -54.469 v 5.4108 h 54.469 z m 0,-38.717 h -54.469 v 5.531 h 54.469 z m -54.469,78.636998 v 5.531 h 54.469 v -5.531 z"
           stroke-miterlimit="2" />
        <path
           style="fill:#3f50b5;stroke:#000000;stroke-width:0.53887999"
           id="icon"
           d="m 224.74154,347.53243 c -0.56835,0.003 -1.1146,0.01 -1.2134,0.0147 -0.0989,0.005 -0.44942,0.03 -0.779,0.0557 -0.32958,0.0258 -0.862,0.08 -1.1835,0.12045 -0.32119,0.0404 -0.79997,0.10846 -1.0636,0.15071 -0.26367,0.0425 -0.77599,0.13782 -1.1386,0.21182 -0.36254,0.0737 -0.97527,0.21453 -1.3618,0.31251 -0.38651,0.098 -0.86528,0.22621 -1.0636,0.28493 -0.19865,0.0587 -0.57348,0.17408 -0.83295,0.25618 -0.25947,0.0818 -0.71127,0.2343 -1.0037,0.33857 -0.29243,0.10396 -0.74064,0.27025 -0.99623,0.36942 -0.25557,0.0992 -0.69241,0.27715 -0.97138,0.3955 -0.27895,0.11835 -0.75745,0.33018 -1.0636,0.4707 -0.3062,0.14082 -0.83294,0.39519 -1.1709,0.56539 -0.33797,0.17049 -0.92251,0.47999 -1.2991,0.68762 -0.37692,0.20793 -0.92283,0.52073 -1.2134,0.69542 -0.29063,0.17438 -0.73078,0.44524 -0.97796,0.60161 -0.24719,0.1564 -0.69871,0.45332 -1.0037,0.66034 -0.30471,0.20674 -0.74306,0.51055 -0.97376,0.67506 -0.2307,0.16479 -0.55429,0.40059 -0.71908,0.52403 -0.16479,0.12374 -0.50845,0.3874 -0.76402,0.58635 -0.25528,0.19865 -0.70022,0.5558 -0.98874,0.79367 -0.28823,0.23789 -0.73288,0.6154 -0.98782,0.83925 -0.25498,0.22351 -0.7269,0.65075 -1.0487,0.94951 -0.32179,0.29871 -0.96266,0.92552 -1.4241,1.3932 -0.46172,0.4677 -1.0337,1.066 -1.2716,1.3297 -0.2376,0.26367 -0.6286,0.70858 -0.86889,0.98874 -0.24029,0.28015 -0.6064,0.71817 -0.81344,0.97376 -0.20704,0.25527 -0.53964,0.67624 -0.73886,0.93539 -0.19955,0.25917 -0.54141,0.71757 -0.75982,1.0187 -0.21872,0.30111 -0.60225,0.85089 -0.8524,1.2219 -0.25018,0.37062 -0.56567,0.84819 -0.70109,1.0609 -0.13542,0.21303 -0.39789,0.63761 -0.58307,0.9438 -0.18516,0.30651 -0.49197,0.83322 -0.68195,1.1712 -0.19026,0.33767 -0.48478,0.87698 -0.65495,1.1985 -0.16989,0.32119 -0.43625,0.84701 -0.59143,1.1685 -0.1552,0.32119 -0.3868,0.81344 -0.51474,1.0936 -0.12824,0.28015 -0.32988,0.73617 -0.44853,1.0136 -0.11865,0.27745 -0.34156,0.82336 -0.49556,1.2135 -0.1543,0.3901 -0.36763,0.95187 -0.47459,1.2485 -0.10697,0.29662 -0.30292,0.86948 -0.43535,1.2734 -0.13273,0.40359 -0.30201,0.93631 -0.37632,1.1835 -0.0743,0.24719 -0.20404,0.69871 -0.28883,1.0037 -0.0845,0.30501 -0.23939,0.90484 -0.34426,1.3333 -0.10486,0.42845 -0.25797,1.0957 -0.34006,1.4831 -0.0821,0.3874 -0.20374,1.0073 -0.27086,1.3782 -0.0668,0.37062 -0.1552,0.88985 -0.19625,1.1538 -0.041,0.26366 -0.10786,0.7221 -0.14831,1.0187 -0.0408,0.29632 -0.10816,0.84911 -0.15011,1.2281 -0.0419,0.37901 -0.0965,0.92493 -0.12134,1.2134 -0.0249,0.28823 -0.0653,0.83445 -0.0899,1.2134 -0.0246,0.37901 -0.0608,1.2497 -0.0803,1.9349 -0.0276,0.96417 -0.0276,1.5367 0,2.5318 0.0198,0.70739 0.0557,1.5961 0.08,1.9751 0.0243,0.37901 0.0647,0.93183 0.0899,1.2284 0.0252,0.29662 0.0728,0.80207 0.10636,1.1236 0.0336,0.32119 0.10037,0.89438 0.14861,1.2734 0.0482,0.37901 0.13543,0.99924 0.19416,1.3782 0.0584,0.37901 0.1534,0.95306 0.21063,1.2757 0.0572,0.32239 0.16359,0.8821 0.2367,1.2434 0.0728,0.36104 0.18157,0.87907 0.24179,1.1512 0.0605,0.27176 0.17497,0.76403 0.25437,1.0936 0.0797,0.32958 0.20764,0.83505 0.28433,1.1236 0.0767,0.28823 0.21393,0.78742 0.30531,1.1086 0.0911,0.32119 0.25798,0.88085 0.37093,1.2434 0.11266,0.36254 0.30531,0.95576 0.42755,1.3183 0.12225,0.36254 0.30681,0.88834 0.40958,1.1685 0.10277,0.28014 0.28793,0.76553 0.41138,1.0786 0.12344,0.3131 0.36313,0.89287 0.53212,1.2884 0.16928,0.39549 0.44523,1.0157 0.61303,1.3782 0.16779,0.36253 0.50455,1.0502 0.74872,1.528 0.24389,0.47789 0.6091,1.1655 0.81134,1.528 0.20254,0.36253 0.50995,0.89497 0.68314,1.1835 0.17318,0.28824 0.42965,0.70621 0.56986,0.92882 0.14023,0.22231 0.38951,0.60672 0.5543,0.85391 0.16479,0.24718 0.44133,0.65167 0.61454,0.89885 0.17318,0.24719 0.49676,0.69214 0.71908,0.98874 0.22261,0.29662 0.58274,0.76192 0.80056,1.034 0.21782,0.27235 0.57466,0.70378 0.79307,0.95878 0.21842,0.25527 0.53332,0.61244 0.69963,0.79366 0.16628,0.18127 0.51564,0.55397 0.77598,0.82815 0.26037,0.27415 0.74603,0.75444 1.079,1.0675 0.33318,0.3131 0.78202,0.72237 0.99774,0.90963 0.21572,0.18755 0.56625,0.48358 0.779,0.65824 0.21273,0.17438 0.53692,0.43265 0.7206,0.57375 0.18336,0.14082 0.50036,0.37661 0.7041,0.52402 0.20374,0.14712 0.51864,0.36914 0.69989,0.49318 0.18127,0.12404 0.53183,0.35355 0.77901,0.51025 0.24718,0.1567 0.64509,0.39878 0.88387,0.53841 0.2391,0.13962 0.69063,0.3898 1.0037,0.55607 0.3131,0.16629 0.79189,0.40568 1.0636,0.53182 0.27206,0.12644 0.711,0.32149 0.97586,0.43384 0.26486,0.11236 0.75686,0.30561 1.0936,0.42966 0.33676,0.12374 0.83472,0.29422 1.1065,0.37842 0.27205,0.0845 0.74392,0.21991 1.0487,0.30141 0.30501,0.0818 0.80385,0.20194 1.1086,0.26726 0.30501,0.0656 0.797,0.15999 1.0936,0.20973 0.29662,0.0497 0.76192,0.11745 1.0337,0.15041 0.27205,0.033 0.74392,0.0833 1.0487,0.11175 0.42935,0.0401 0.86857,0.0518 1.9475,0.0528 0.89524,0.001 1.5538,-0.0126 1.8426,-0.0374 0.24719,-0.0213 0.6451,-0.0587 0.88388,-0.083 0.23909,-0.0246 0.71099,-0.0842 1.0487,-0.13273 0.33797,-0.0482 0.8704,-0.13632 1.1835,-0.19535 0.3131,-0.059 0.8413,-0.16778 1.1736,-0.24179 0.33258,-0.0737 0.9528,-0.22891 1.3782,-0.34456 0.42576,-0.11565 1.1718,-0.34336 1.6578,-0.50606 0.48628,-0.16269 1.1535,-0.40328 1.4831,-0.53451 0.32958,-0.13123 0.80837,-0.32898 1.0636,-0.43924 0.25558,-0.11026 0.80148,-0.36673 1.2134,-0.56987 0.41198,-0.20314 0.93782,-0.47309 1.1685,-0.59983 0.23071,-0.12674 0.67775,-0.3841 0.99321,-0.57196 0.3155,-0.18786 0.85542,-0.52823 1.1997,-0.75595 0.34456,-0.22801 0.82783,-0.56059 1.0744,-0.73885 0.24628,-0.17858 0.62321,-0.45992 0.83742,-0.62559 0.21422,-0.16539 0.53781,-0.42216 0.71908,-0.57019 0.18127,-0.14801 0.51804,-0.43145 0.74845,-0.63011 0.23041,-0.19895 0.58754,-0.51535 0.79399,-0.70319 0.20614,-0.18815 0.73255,-0.70049 1.1691,-1.1386 0.43684,-0.43833 0.98874,-1.0124 1.2266,-1.2761 0.2379,-0.26367 0.63432,-0.71521 0.88086,-1.0034 0.24688,-0.28824 0.65409,-0.78078 0.90456,-1.0948 0.25078,-0.3137 0.65738,-0.83952 0.90365,-1.1685 0.24629,-0.32928 0.59686,-0.80837 0.77933,-1.0652 0.18217,-0.25647 0.54648,-0.78919 0.80956,-1.1835 0.26306,-0.394 0.62321,-0.94471 0.80056,-1.223 0.17708,-0.27865 0.52074,-0.83801 0.76343,-1.2434 0.24299,-0.40539 0.56389,-0.9528 0.71337,-1.2165 0.14951,-0.26367 0.33947,-0.59924 0.42246,-0.74603 l 0.15041,-0.26636 0.0174,0.10157 c 0.009,0.056 0.038,0.3107 0.0635,0.56626 0.0252,0.25527 0.0794,0.75411 0.12045,1.1086 0.0407,0.35415 0.10127,0.85989 0.13423,1.1236 0.033,0.26366 0.11355,0.85989 0.17917,1.3252 0.0653,0.46531 0.16629,1.123 0.22412,1.4618 0.0581,0.33857 0.16029,0.8815 0.22771,1.2063 0.0671,0.32508 0.20044,0.90095 0.29631,1.28 0.0959,0.37901 0.26217,0.97224 0.36943,1.3183 0.10727,0.34606 0.28254,0.86652 0.38951,1.1566 0.10696,0.29003 0.27864,0.72657 0.38141,0.97047 0.10307,0.24389 0.32448,0.72118 0.49257,1.0606 0.16809,0.33977 0.42426,0.81975 0.56927,1.0669 0.14472,0.24719 0.38471,0.63157 0.53332,0.85391 0.14831,0.22232 0.40928,0.58846 0.58005,0.81344 0.17048,0.22472 0.45632,0.57526 0.63491,0.77901 0.17887,0.20344 0.45842,0.49826 0.62171,0.65468 0.16299,0.15671 0.38441,0.35985 0.49137,0.45213 0.10696,0.092 0.33647,0.27535 0.50935,0.40718 0.17318,0.13213 0.45632,0.33407 0.6292,0.44943 0.17318,0.11505 0.43325,0.27924 0.57827,0.36463 0.14532,0.0854 0.44194,0.24838 0.65916,0.36254 0.21752,0.11415 0.57078,0.28403 0.78499,0.37721 0.21422,0.0935 0.54023,0.22832 0.72414,0.29962 0.18427,0.0713 0.56836,0.20554 0.85359,0.29812 0.28524,0.0929 0.77513,0.2349 1.0882,0.3161 0.31339,0.0809 0.83952,0.20104 1.1691,0.26696 0.32958,0.0659 0.82184,0.1531 1.0936,0.19385 0.27206,0.0407 0.73045,0.10157 1.0187,0.13483 0.28853,0.0333 0.81436,0.0839 1.1685,0.11206 0.45302,0.0363 0.99531,0.0518 1.8277,0.0534 l 1.1835,0.002 0.48987,-0.0677 c 0.26966,-0.0371 0.70771,-0.11446 0.97376,-0.17168 0.26606,-0.0575 0.66605,-0.1594 0.88834,-0.22621 0.22262,-0.0671 0.59326,-0.19685 0.82395,-0.28884 0.23071,-0.0917 0.54923,-0.2319 0.70798,-0.3116 0.1588,-0.0794 0.41437,-0.22051 0.56809,-0.3137 0.15371,-0.0932 0.40808,-0.26396 0.56539,-0.37961 0.1573,-0.11566 0.45452,-0.38051 0.66035,-0.58873 0.21482,-0.21692 0.45302,-0.49347 0.5579,-0.64806 0.10097,-0.14831 0.21753,-0.33737 0.25917,-0.42036 0.0419,-0.0827 0.10726,-0.25108 0.14562,-0.37452 0.0527,-0.16839 0.0692,-0.29033 0.0674,-0.49347 -0.002,-0.20524 -0.0186,-0.3125 -0.0713,-0.44943 -0.0378,-0.0989 -0.11236,-0.24718 -0.16539,-0.32958 -0.053,-0.0824 -0.16899,-0.22231 -0.25767,-0.311 -0.0887,-0.0884 -0.27235,-0.2343 -0.40838,-0.32388 -0.13602,-0.0896 -0.33826,-0.20435 -0.44942,-0.25498 -0.11117,-0.0509 -0.33558,-0.13782 -0.49827,-0.19356 -0.16299,-0.0557 -0.45961,-0.13482 -0.65916,-0.17587 -0.27205,-0.0557 -0.56625,-0.0857 -1.1721,-0.11925 -0.44493,-0.0246 -0.97074,-0.0659 -1.1685,-0.0914 -0.19774,-0.0258 -0.50096,-0.074 -0.67414,-0.10696 -0.17287,-0.033 -0.44942,-0.0938 -0.61421,-0.13513 -0.16479,-0.0417 -0.44793,-0.12314 -0.6292,-0.18157 -0.18127,-0.0584 -0.4641,-0.15939 -0.6286,-0.22471 -0.16419,-0.0653 -0.49467,-0.21813 -0.73407,-0.33917 -0.23909,-0.12134 -0.61691,-0.34037 -0.83952,-0.48658 -0.22231,-0.14621 -0.53931,-0.37392 -0.7041,-0.50545 -0.16479,-0.13184 -0.45961,-0.3934 -0.65495,-0.58124 -0.19535,-0.18786 -0.4725,-0.47759 -0.61573,-0.64359 -0.14321,-0.16598 -0.36193,-0.43594 -0.48598,-0.60015 -0.12374,-0.16419 -0.29422,-0.40119 -0.37842,-0.52673 -0.0845,-0.12554 -0.2298,-0.35414 -0.32328,-0.50815 -0.0932,-0.154 -0.25468,-0.43774 -0.35864,-0.63038 -0.10397,-0.19266 -0.28494,-0.55521 -0.40209,-0.80595 -0.11715,-0.25048 -0.29961,-0.67322 -0.40508,-0.939 -0.10547,-0.26606 -0.26067,-0.68583 -0.34516,-0.93302 -0.0842,-0.24718 -0.22621,-0.69903 -0.3155,-1.0037 -0.089,-0.30501 -0.22232,-0.79905 -0.29632,-1.0984 -0.0737,-0.29931 -0.18906,-0.81015 -0.25648,-1.1349 -0.0671,-0.32479 -0.16179,-0.81468 -0.21002,-1.0885 -0.0482,-0.27415 -0.12884,-0.77809 -0.17918,-1.1203 -0.0503,-0.34186 -0.12434,-0.89465 -0.16479,-1.2284 -0.0405,-0.33347 -0.10067,-0.88269 -0.13363,-1.2206 -0.0333,-0.33797 -0.0809,-0.8704 -0.10606,-1.1835 -0.0249,-0.3131 -0.0659,-0.89977 -0.0908,-1.3033 -0.0252,-0.40358 -0.0653,-1.1724 -0.0896,-1.7078 -0.0242,-0.53571 -0.0578,-1.4322 -0.0746,-1.9924 -0.0168,-0.56028 -0.0444,-1.6053 -0.0611,-2.322 -0.0168,-0.71698 -0.044,-1.7483 -0.0605,-2.2921 -0.0165,-0.54379 -0.0434,-1.2584 -0.0602,-1.588 -0.0168,-0.32958 -0.0572,-1.0106 -0.0905,-1.5131 -0.033,-0.50275 -0.0938,-1.3453 -0.13513,-1.8726 -0.0413,-0.52733 -0.11565,-1.4037 -0.16508,-1.9475 -0.0497,-0.54378 -0.13723,-1.4337 -0.19475,-1.9775 -0.0572,-0.54379 -0.13094,-1.2069 -0.1636,-1.4735 -0.0324,-0.26636 -0.059,-0.53332 -0.059,-0.59266 0,-0.0596 0.0797,-0.35385 0.17737,-0.65404 0.0977,-0.29992 0.32119,-1.004 0.49707,-1.5643 0.17557,-0.56027 0.48717,-1.5763 0.69241,-2.2579 0.20524,-0.68131 0.54712,-1.8478 0.75982,-2.5917 0.21273,-0.74392 0.52823,-1.8714 0.70141,-2.506 0.17288,-0.63458 0.41527,-1.5376 0.53841,-2.0074 0.12344,-0.46981 0.33947,-1.3054 0.48029,-1.8576 0.14082,-0.55219 0.38531,-1.5365 0.54292,-2.1872 0.15789,-0.65108 0.40208,-1.6758 0.54233,-2.2771 0.14021,-0.60134 0.36822,-1.5994 0.50635,-2.2172 0.13842,-0.6181 0.37961,-1.7237 0.53632,-2.4569 0.1564,-0.73347 0.40028,-1.9064 0.54141,-2.6067 0.14142,-0.70049 0.35025,-1.7522 0.4641,-2.337 0.11416,-0.58517 0.30861,-1.6098 0.43235,-2.2771 0.12375,-0.66757 0.32749,-1.7932 0.45302,-2.5018 0.12525,-0.70857 0.33378,-1.922 0.46381,-2.6966 0.12974,-0.77453 0.34636,-2.1027 0.48179,-2.9512 0.16898,-1.0621 0.24988,-1.6551 0.25947,-1.9026 0.0108,-0.27535 0.002,-0.40508 -0.0363,-0.55429 -0.0279,-0.10727 -0.0911,-0.27775 -0.14053,-0.37902 -0.0497,-0.10127 -0.15789,-0.26007 -0.24029,-0.35265 -0.0827,-0.0926 -0.2343,-0.22831 -0.33736,-0.30201 -0.10308,-0.0734 -0.28045,-0.17918 -0.3943,-0.2352 -0.11356,-0.056 -0.30951,-0.13603 -0.43475,-0.17797 -0.12554,-0.0419 -0.35474,-0.10307 -0.50935,-0.13603 -0.1549,-0.033 -0.40927,-0.0773 -0.56599,-0.0983 -0.16389,-0.0219 -0.57045,-0.0375 -0.95877,-0.0363 -0.42696,0.001 -0.82244,0.0198 -1.0786,0.0506 -0.22231,0.0267 -0.59982,0.0839 -0.83892,0.12674 -0.2388,0.0428 -0.63669,0.12974 -0.88388,0.19295 -0.24718,0.0632 -0.63819,0.17828 -0.86889,0.25558 -0.2307,0.0773 -0.60823,0.22082 -0.83893,0.31879 -0.2307,0.098 -0.54739,0.24659 -0.7041,0.33048 -0.1564,0.0836 -0.40118,0.22411 -0.54378,0.3122 -0.14262,0.0881 -0.38171,0.25467 -0.53152,0.37033 -0.14981,0.11565 -0.36674,0.30501 -0.48269,0.42066 -0.11565,0.11595 -0.28344,0.30771 -0.37272,0.42636 -0.0893,0.11894 -0.21603,0.32389 -0.28164,0.45572 -0.0653,0.13183 -0.14052,0.32059 -0.16719,0.41946 -0.0264,0.0989 -0.16329,0.91443 -0.30411,1.8127 -0.14082,0.89793 -0.36943,2.3136 -0.50785,3.146 -0.13842,0.83203 -0.34037,2.0185 -0.44853,2.6366 -0.10846,0.61782 -0.29183,1.6425 -0.40718,2.2771 -0.11565,0.63432 -0.30441,1.6524 -0.41976,2.2621 -0.11506,0.60975 -0.37902,1.958 -0.58636,2.9962 -0.20733,1.0382 -0.3859,1.8974 -0.39699,1.9097 -0.0111,0.012 -0.13992,-0.25767 -0.28643,-0.59924 -0.14681,-0.34186 -0.39999,-0.91146 -0.56297,-1.2656 -0.16299,-0.35415 -0.48867,-1.0283 -0.72388,-1.4981 -0.2349,-0.4698 -0.55909,-1.0966 -0.72059,-1.3932 -0.16119,-0.29662 -0.42875,-0.77539 -0.59476,-1.0636 -0.16599,-0.28853 -0.43834,-0.74694 -0.60522,-1.0187 -0.16688,-0.27205 -0.42965,-0.69004 -0.58425,-0.92881 -0.15431,-0.2391 -0.42876,-0.65016 -0.60975,-0.91384 -0.18126,-0.26366 -0.45092,-0.64806 -0.59923,-0.85391 -0.14861,-0.20614 -0.3982,-0.54319 -0.55521,-0.74904 -0.1567,-0.20614 -0.41946,-0.54319 -0.58393,-0.74905 -0.16449,-0.20613 -0.4725,-0.58005 -0.68492,-0.83143 -0.21213,-0.25138 -0.57644,-0.66935 -0.80956,-0.92882 -0.2328,-0.25947 -0.80147,-0.85062 -1.2638,-1.3135 -0.46231,-0.46261 -1.055,-1.0334 -1.3171,-1.2683 -0.26217,-0.2346 -0.70712,-0.61809 -0.98874,-0.85213 -0.28164,-0.234 -0.66724,-0.54831 -0.8566,-0.69812 -0.18936,-0.14981 -0.57855,-0.44403 -0.86442,-0.65436 -0.28614,-0.21003 -0.76942,-0.54858 -1.0742,-0.75265 -0.30471,-0.20405 -0.76521,-0.49737 -1.0232,-0.65226 -0.25797,-0.15491 -0.65285,-0.38321 -0.87729,-0.50755 -0.22472,-0.12435 -0.59891,-0.32119 -0.83144,-0.43775 -0.2325,-0.11655 -0.62952,-0.30531 -0.88236,-0.41976 -0.25288,-0.11446 -0.69451,-0.30172 -0.98152,-0.41617 -0.28674,-0.11416 -0.67651,-0.26276 -0.8662,-0.33018 -0.18936,-0.0674 -0.51294,-0.17587 -0.71908,-0.24119 -0.20584,-0.0653 -0.51864,-0.15999 -0.69451,-0.21063 -0.17618,-0.0509 -0.59417,-0.1591 -0.92881,-0.2406 -0.33498,-0.0818 -0.85812,-0.19535 -1.1631,-0.25287 -0.30471,-0.0572 -0.80358,-0.13842 -1.1086,-0.18007 -0.30471,-0.0419 -0.76311,-0.0965 -1.0187,-0.12105 -0.25527,-0.0246 -0.68675,-0.0584 -0.95877,-0.0752 -0.27176,-0.0168 -0.95937,-0.0282 -1.528,-0.0252 z m -3.161,6.39 c 0.63071,0.007 0.89497,0.0228 1.1985,0.0704 0.21423,0.0335 0.5447,0.0959 0.73406,0.13872 0.18966,0.0428 0.52673,0.13243 0.74905,0.19894 0.22261,0.0668 0.60015,0.19566 0.83893,0.28674 0.23909,0.0908 0.74457,0.31759 1.1236,0.50425 0.37902,0.18637 0.88479,0.45632 1.1236,0.59924 0.23909,0.14322 0.63011,0.3904 0.86889,0.5495 0.23909,0.1591 0.65404,0.45422 0.92251,0.65554 0.26846,0.20165 0.66632,0.51385 0.88446,0.6936 0.21842,0.17977 0.58517,0.49437 0.81554,0.6993 0.23011,0.20494 0.64779,0.59142 0.9279,0.85871 0.28014,0.26726 0.75056,0.73826 1.0454,1.0466 0.29482,0.3086 0.78229,0.83715 1.0834,1.1751 0.30111,0.33767 0.70377,0.80089 0.89524,1.0289 0.19116,0.22801 0.51684,0.62979 0.72328,0.89254 0.20674,0.26307 0.54142,0.70351 0.74398,0.97888 0.20224,0.27505 0.52074,0.72145 0.70739,0.99203 0.18666,0.27055 0.49647,0.73557 0.68853,1.0337 0.19205,0.29812 0.51085,0.81166 0.7089,1.1412 0.19774,0.32958 0.49496,0.84194 0.66066,1.1385 0.16539,0.29662 0.43984,0.80207 0.61002,1.1236 0.17017,0.32119 0.45511,0.88355 0.63307,1.2497 0.17768,0.36613 0.45902,0.96449 0.625,1.33 0.16569,0.36553 0.40957,0.92041 0.542,1.2332 0.13214,0.31279 0.37962,0.921 0.5495,1.3516 0.16988,0.43055 0.41976,1.0861 0.55521,1.457 0.13542,0.37062 0.40598,1.1526 0.60101,1.7378 0.19505,0.58485 0.48209,1.4885 0.6382,2.0074 0.1561,0.51893 0.3916,1.3414 0.52373,1.8277 0.13213,0.48598 0.3143,1.1805 0.40478,1.543 0.0905,0.36254 0.24539,1.0232 0.34426,1.4681 0.0989,0.44493 0.24119,1.1191 0.3158,1.4981 0.0749,0.37901 0.17648,0.91146 0.22591,1.1835 0.0491,0.27175 0.13003,0.73708 0.17917,1.0337 0.0494,0.29662 0.14412,0.90332 0.21063,1.3483 0.0662,0.44493 0.15401,1.0582 0.19475,1.3633 0.0407,0.30471 0.11416,0.88748 0.16329,1.2947 l 0.0893,0.74036 -0.29482,0.87757 c -0.1621,0.48268 -0.36883,1.0933 -0.45962,1.357 -0.0908,0.26366 -0.3086,0.88295 -0.48448,1.3765 -0.17587,0.49347 -0.47279,1.3093 -0.65975,1.8127 -0.18726,0.50365 -0.47459,1.2662 -0.63846,1.6946 -0.16359,0.42846 -0.4698,1.2104 -0.68012,1.7378 -0.21063,0.52733 -0.51654,1.2824 -0.68045,1.6779 -0.16389,0.3955 -0.471,1.1236 -0.68222,1.6179 -0.21123,0.49437 -0.55219,1.2764 -0.75772,1.7378 -0.20554,0.46141 -0.53572,1.1895 -0.73374,1.6179 -0.19805,0.42846 -0.51115,1.0957 -0.69602,1.4831 -0.18457,0.38711 -0.61572,1.2641 -0.95818,1.9481 -0.34247,0.68432 -0.75352,1.4933 -0.91384,1.7977 -0.16029,0.30471 -0.34605,0.65469 -0.41257,0.77842 -0.0668,0.12344 -0.2289,0.42006 -0.36074,0.65915 -0.13153,0.2388 -0.40148,0.71758 -0.59982,1.0636 -0.19835,0.34606 -0.51535,0.88538 -0.7047,1.1985 -0.18936,0.3131 -0.48657,0.79161 -0.66094,1.0636 -0.17407,0.27175 -0.471,0.72355 -0.65948,1.0037 -0.18876,0.28014 -0.53272,0.77211 -0.76435,1.0936 -0.2316,0.32119 -0.6127,0.83026 -0.84701,1.1311 -0.2343,0.30052 -0.5648,0.71159 -0.73465,0.91324 -0.16959,0.20194 -0.41497,0.48838 -0.5447,0.63696 -0.12974,0.14831 -0.4734,0.52373 -0.76371,0.83413 -0.29003,0.3104 -0.72985,0.75562 -0.97736,0.98933 -0.24719,0.2337 -0.57768,0.54023 -0.73439,0.68104 -0.1564,0.14111 -0.41257,0.36343 -0.56927,0.49466 -0.1564,0.13094 -0.3925,0.32 -0.52433,0.41977 -0.13183,0.0998 -0.36104,0.26276 -0.50935,0.36223 -0.14831,0.0992 -0.41677,0.26517 -0.59654,0.36884 -0.18008,0.10367 -0.4698,0.25527 -0.64418,0.33707 -0.17468,0.0815 -0.41827,0.18935 -0.54201,0.23879 -0.12344,0.0497 -0.35954,0.13663 -0.52433,0.19296 -0.16479,0.0563 -0.47489,0.14801 -0.68912,0.20374 -0.21422,0.0554 -0.59832,0.13572 -0.85391,0.17797 -0.25527,0.0425 -0.61271,0.0908 -0.79398,0.10756 -0.18127,0.0165 -0.6208,0.0303 -0.97646,0.0303 -0.35564,0 -0.8545,-0.02 -1.1086,-0.0446 -0.25408,-0.0246 -0.62742,-0.0716 -0.83025,-0.10516 -0.20255,-0.0333 -0.52614,-0.0944 -0.71909,-0.13603 -0.19265,-0.0417 -0.52373,-0.12345 -0.73557,-0.18157 -0.21183,-0.0584 -0.61809,-0.18576 -0.90246,-0.28314 -0.28464,-0.0971 -0.72959,-0.26516 -0.98906,-0.37332 -0.25947,-0.10787 -0.71192,-0.3167 -1.0055,-0.46381 -0.29332,-0.14711 -0.65528,-0.33497 -0.80417,-0.41767 -0.14861,-0.0827 -0.42965,-0.24718 -0.62381,-0.36553 -0.19445,-0.11865 -0.53541,-0.33767 -0.75745,-0.48718 -0.22202,-0.14951 -0.61303,-0.42905 -0.86889,-0.62143 -0.25587,-0.19205 -0.6403,-0.49317 -0.8545,-0.66875 -0.21423,-0.17588 -0.65259,-0.55311 -0.97376,-0.83834 -0.32119,-0.28523 -0.8614,-0.79339 -1.2006,-1.1293 -0.33887,-0.33587 -0.78618,-0.79517 -0.99386,-1.0211 -0.20764,-0.22561 -0.57164,-0.63701 -0.80897,-0.91383 -0.23729,-0.27685 -0.56625,-0.67204 -0.73137,-0.87789 -0.16509,-0.20614 -0.42845,-0.54319 -0.58517,-0.74905 -0.1567,-0.20613 -0.45302,-0.6106 -0.65883,-0.89885 -0.20584,-0.28853 -0.50905,-0.72657 -0.67382,-0.97376 -0.16479,-0.24718 -0.45511,-0.69903 -0.64509,-1.0037 -0.18996,-0.30502 -0.4701,-0.77001 -0.62262,-1.0337 -0.15251,-0.26367 -0.3985,-0.7005 -0.54648,-0.97047 -0.14831,-0.26996 -0.45512,-0.86318 -0.68223,-1.3183 -0.22711,-0.45512 -0.52043,-1.0633 -0.65199,-1.3516 -0.13183,-0.28853 -0.33437,-0.74694 -0.45032,-1.0187 -0.11595,-0.27205 -0.27296,-0.64655 -0.34936,-0.83235 -0.0764,-0.18577 -0.2343,-0.59024 -0.35115,-0.89886 -0.11685,-0.3086 -0.31969,-0.86441 -0.45033,-1.235 -0.13093,-0.37093 -0.33916,-0.99774 -0.46291,-1.3932 -0.12374,-0.3955 -0.30561,-1.0022 -0.40418,-1.3483 -0.0986,-0.34606 -0.25198,-0.91233 -0.34126,-1.2584 -0.089,-0.34605 -0.22411,-0.89885 -0.30022,-1.2284 -0.0758,-0.32958 -0.21752,-0.99714 -0.31429,-1.4831 -0.0971,-0.48629 -0.23071,-1.2075 -0.29692,-1.603 -0.0662,-0.39549 -0.1606,-1.0022 -0.20944,-1.3483 -0.0488,-0.34606 -0.13003,-0.99321 -0.18007,-1.4382 -0.0503,-0.44493 -0.11804,-1.1326 -0.151,-1.528 -0.0327,-0.3955 -0.0731,-0.9348 -0.0893,-1.1985 -0.0165,-0.26367 -0.0455,-0.89077 -0.0644,-1.3932 -0.0216,-0.56297 -0.0282,-1.472 -0.0177,-2.367 0.01,-0.79938 0.0383,-1.7971 0.0638,-2.2172 0.0258,-0.42037 0.0671,-1.0136 0.0923,-1.3183 0.0255,-0.30501 0.0797,-0.86442 0.12104,-1.2434 0.0417,-0.37902 0.10906,-0.93868 0.15011,-1.2434 0.041,-0.30502 0.12944,-0.88479 0.19625,-1.2884 0.0668,-0.40389 0.18187,-1.0376 0.25558,-1.4082 0.0737,-0.37093 0.19475,-0.93722 0.26906,-1.2584 0.074,-0.32149 0.20194,-0.84043 0.28433,-1.1535 0.0821,-0.3131 0.22352,-0.82546 0.3143,-1.1386 0.0908,-0.3131 0.29093,-0.94681 0.44463,-1.4082 0.154,-0.46141 0.38111,-1.1086 0.50455,-1.4382 0.12374,-0.32958 0.30591,-0.80147 0.40479,-1.0487 0.0989,-0.24718 0.29452,-0.71908 0.43504,-1.0487 0.14052,-0.32958 0.37632,-0.86232 0.52403,-1.1835 0.14801,-0.32149 0.38261,-0.82034 0.52164,-1.1086 0.13902,-0.28854 0.41197,-0.82783 0.6064,-1.1985 0.19445,-0.37093 0.48868,-0.91686 0.65344,-1.2135 0.16479,-0.29662 0.50606,-0.88327 0.75832,-1.3033 0.25198,-0.42037 0.63097,-1.0301 0.84221,-1.3552 0.21123,-0.32539 0.5648,-0.85121 0.78618,-1.1685 0.22112,-0.31759 0.58393,-0.82007 0.80659,-1.1167 0.22232,-0.29662 0.59983,-0.78202 0.83861,-1.0786 0.23909,-0.29662 0.56297,-0.68761 0.72,-0.86889 0.15699,-0.18127 0.47729,-0.53871 0.71191,-0.79399 0.2343,-0.25557 0.69333,-0.72867 1.0202,-1.0519 0.32658,-0.32299 0.74274,-0.7206 0.92461,-0.88388 0.18217,-0.16299 0.48538,-0.42576 0.67414,-0.58425 0.18906,-0.1585 0.49856,-0.40808 0.68794,-0.55521 0.18965,-0.14711 0.4671,-0.35685 0.61723,-0.46621 0.14981,-0.10936 0.45332,-0.31909 0.67414,-0.4665 0.22082,-0.14711 0.60942,-0.3928 0.8635,-0.54562 0.25408,-0.1531 0.71908,-0.41017 1.0337,-0.57164 0.3143,-0.16149 0.81436,-0.39669 1.111,-0.52283 0.29662,-0.12644 0.81586,-0.32179 1.1535,-0.43445 0.33796,-0.11295 0.80298,-0.25228 1.0337,-0.3101 0.2307,-0.0578 0.58813,-0.13902 0.79398,-0.18037 0.20614,-0.0413 0.52283,-0.0962 0.7041,-0.12225 0.18127,-0.0261 0.43085,-0.0596 0.5543,-0.0746 0.12374,-0.015 0.58872,-0.0228 1.0337,-0.0177 z"
           transform="translate(7,-309.165)" />
      </g>
    </g>
  </g>
</svg>
